<svg version="1.1" xmlns="http://www.w3.org/2000/svg" xmlns:xlink="http://www.w3.org/1999/xlink" width="135.89171" height="84.87026" viewBox="0,0,135.89171,84.87026"><defs><linearGradient x1="237.67168" y1="135.099" x2="237.67168" y2="219.96926" gradientUnits="userSpaceOnUse" id="color-1"><stop offset="0" stop-color="#abfffd"/><stop offset="1" stop-color="#beffab"/></linearGradient><linearGradient x1="242.53578" y1="143.34693" x2="242.53578" y2="219.55066" gradientUnits="userSpaceOnUse" id="color-2"><stop offset="0" stop-color="#abfffd"/><stop offset="1" stop-color="#7dff55"/></linearGradient></defs><g transform="translate(-169.72582,-135.099)"><g data-paper-data="{&quot;isPaintingLayer&quot;:true}" fill-rule="nonzero" stroke="none" stroke-linecap="round" stroke-linejoin="miter" stroke-miterlimit="10" stroke-dasharray="" stroke-dashoffset="0" style="mix-blend-mode: normal"><path d="M239.6173,137.7607c11.9314,-2.9624 25.5788,-4.3515 37.3805,0.6931c4.1469,2.0143 -1.3854,12.1991 1.4602,16.4965c1.5688,2.3677 5.5335,-3.7886 7.5345,-1.4556c8.0064,8.0625 19.5734,16.9401 19.6248,29.666c0.0537,13.078 -9.2541,26.5067 -19.3433,32.0947c-14.1275,7.8088 -31.2092,3.8163 -46.7736,2.7004c-14.5445,-1.0425 -28.6743,-6.1273 -43.046,-9.0107c-7.128,-1.1118 -15.1858,1.1492 -21.4938,-2.9804c-3.8397,-2.5133 -6.0334,-9.2298 -4.9646,-14.4865c1.5583,-6.1092 11.2259,-5.8333 12.9664,-11.9911c1.7791,-6.3033 -6.1222,-13.7836 -3.9717,-20.5166c1.6284,-4.5705 7.9854,-4.2143 12.4991,-4.9906c7.7355,-1.3183 15.9615,2.3788 23.4797,0c9.0542,-2.9042 15.4615,-13.9388 24.6478,-16.2192z" fill="url(#color-1)" stroke-width="1.28185"/><path d="M241.7814,144.6431c5.1579,-1.8207 10.8492,-2.0078 14.7291,1.2996c3.2744,2.3705 1.14,8.576 2.6283,12.476c1.1466,3.0112 2.7859,6.8294 5.366,9.0322c2.4049,1.5855 5.469,1.1813 8.4871,1.4945c4.8108,0.4614 10.34,-3.0085 14.5101,-0.4549c6.8784,4.0262 16.7234,9.821 16.1528,18.7141c-0.7972,12.411 -13.3811,19.1897 -19.6571,29.2407c-1.3382,2.5823 3.6774,0.6524 1.5233,0.8473c-8.6097,0.7759 -15.9119,2.5849 -24.0277,2.2067c-9.9907,-0.733 -19.5783,-2.1612 -30.0059,-5.5232c-7.5114,-2.5082 -13.2234,-10.5748 -20.9713,-12.4761c-7.8377,-1.9246 -16.8384,3.5596 -24.0376,0.4549c-3.3335,-1.4503 -6.4173,-7.9769 -4.4899,-11.5013c2.6775,-4.8033 11.6968,-0.6992 15.0029,-5.4583c2.1059,-3.1606 -2.3139,-7.5532 -1.9712,-11.5013c-0.4489,-4.6318 -1.9591,-11.708 1.6427,-13.6457c6.6692,-3.5947 14.9635,2.2301 22.0116,0c8.4882,-2.7226 14.6788,-12.2109 23.1068,-15.2052z" fill="url(#color-2)" stroke-width="1.2017"/></g></g></svg>